<svg width="19" height="20" viewBox="0 0 19 20" fill="none" xmlns="http://www.w3.org/2000/svg">
<path d="M15.3429 9.63672C15.3324 9.06606 15.55 8.46017 16.0461 8.05176L17.051 7.22559L17.0988 7.17773C17.1994 7.05889 17.2171 6.88698 17.1369 6.74805L15.84 4.50195C15.7484 4.34321 15.5556 4.27361 15.384 4.33789L14.1672 4.79395C13.564 5.01993 12.9297 4.90471 12.4406 4.60938C12.3762 4.57052 12.3112 4.53257 12.2453 4.49609C11.7775 4.23715 11.3819 3.78974 11.2472 3.21191L11.2238 3.09473L11.0109 1.81348C10.9808 1.63266 10.8241 1.5 10.6408 1.5H8.04705C7.86373 1.5 7.70707 1.63266 7.67693 1.81348L7.46306 3.09473C7.35719 3.72914 6.94147 4.21992 6.44255 4.49609C6.37665 4.53258 6.31161 4.57051 6.24724 4.60938C5.75812 4.90473 5.12391 5.01993 4.52068 4.79395L3.30388 4.33789C3.13223 4.27358 2.93949 4.34322 2.84783 4.50195L1.55095 6.74805C1.45929 6.9068 1.49536 7.10908 1.63689 7.22559L2.6408 8.05176C3.13691 8.46017 3.35547 9.06602 3.3449 9.63672C3.3442 9.67439 3.34392 9.71215 3.34392 9.75C3.34392 9.78785 3.3442 9.82561 3.3449 9.86328C3.35481 10.3984 3.1635 10.964 2.73064 11.3691L2.6408 11.4482L1.63689 12.2744C1.49536 12.3909 1.45929 12.5932 1.55095 12.752L2.84783 14.998L2.88591 15.0537C2.9866 15.1725 3.15365 15.2184 3.30388 15.1621L4.52068 14.7061L4.63396 14.668C5.20256 14.4954 5.78863 14.6137 6.24724 14.8906C6.31161 14.9295 6.37664 14.9674 6.44255 15.0039C6.94147 15.2801 7.35719 15.7709 7.46306 16.4053L7.67693 17.6865C7.70707 17.8673 7.86373 18 8.04705 18H10.6408C10.8241 18 10.9808 17.8673 11.0109 17.6865L11.2238 16.4053C11.3296 15.7708 11.7463 15.2801 12.2453 15.0039C12.3112 14.9674 12.3762 14.9295 12.4406 14.8906C12.9297 14.5953 13.5639 14.4801 14.1672 14.7061L15.384 15.1621L15.4494 15.1797C15.6025 15.2072 15.7599 15.1369 15.84 14.998L17.1369 12.752C17.2285 12.5932 17.1925 12.3909 17.051 12.2744L16.0461 11.4482C15.55 11.0398 15.3324 10.4339 15.3429 9.86328C15.3436 9.82562 15.3439 9.78786 15.3439 9.75C15.3439 9.71216 15.3436 9.67439 15.3429 9.63672ZM11.5939 9.75C11.5939 8.50745 10.5864 7.50015 9.34392 7.5C8.10128 7.5 7.09392 8.50736 7.09392 9.75C7.09396 10.9926 8.10131 12 9.34392 12C10.5864 11.9999 11.5939 10.9925 11.5939 9.75ZM13.0939 9.75C13.0939 11.8209 11.4148 13.4999 9.34392 13.5C7.27288 13.5 5.59396 11.821 5.59392 9.75C5.59392 7.67893 7.27285 6 9.34392 6C11.4149 6.00015 13.0939 7.67902 13.0939 9.75ZM16.8429 9.8916C16.8396 10.0784 16.9113 10.2169 17.0002 10.29L18.0041 11.1162C18.7117 11.6988 18.895 12.7082 18.4367 13.502L17.1398 15.748C16.7102 16.4922 15.8346 16.8432 15.0197 16.6191L14.8576 16.5664L13.6408 16.1104C13.5329 16.07 13.3768 16.0777 13.216 16.1748C13.1357 16.2233 13.0541 16.2699 12.9719 16.3154C12.8073 16.4065 12.7232 16.5389 12.7043 16.6523L12.4904 17.9336C12.3396 18.8375 11.5573 19.5 10.6408 19.5H8.04705C7.13059 19.5 6.34826 18.8375 6.19744 17.9336L5.98357 16.6523C5.96465 16.5389 5.8805 16.4065 5.71599 16.3154C5.63374 16.2699 5.55217 16.2233 5.47185 16.1748C5.35104 16.1019 5.23298 16.0793 5.13591 16.0898L5.04705 16.1104L3.83025 16.5664C2.97193 16.888 2.00631 16.5418 1.54802 15.748L0.251147 13.502C-0.207117 12.7082 -0.0237854 11.6997 0.683764 11.1172L1.68767 10.29L1.75017 10.2227C1.80765 10.1441 1.84744 10.0316 1.8449 9.8916C1.84403 9.84458 1.84392 9.79721 1.84392 9.75C1.84392 9.70279 1.84403 9.65542 1.8449 9.6084C1.84744 9.46838 1.80765 9.35586 1.75017 9.27734L1.68767 9.20996L0.683764 8.38379C-0.0238692 7.80124 -0.20714 6.79182 0.251147 5.99805L1.54802 3.75195C2.00631 2.95818 2.97193 2.61204 3.83025 2.93359L5.04705 3.38965C5.15493 3.42996 5.31104 3.4223 5.47185 3.3252C5.55217 3.2767 5.63373 3.23011 5.71599 3.18457C5.8805 3.09351 5.96465 2.96115 5.98357 2.84766L6.19744 1.56641L6.23259 1.40039C6.44595 0.582477 7.18765 0 8.04705 0H10.6408C11.5573 0 12.3396 0.662471 12.4904 1.56641L12.7043 2.84766L12.7306 2.93555C12.77 3.02472 12.8485 3.11631 12.9719 3.18457C13.0541 3.23011 13.1357 3.2767 13.216 3.3252C13.3768 3.42231 13.5329 3.42999 13.6408 3.38965L14.8576 2.93359C15.7159 2.61204 16.6815 2.95818 17.1398 3.75195L18.4367 5.99805C18.8663 6.7422 18.7325 7.6758 18.131 8.26953L18.0041 8.38281L17.0002 9.20996C16.9113 9.28312 16.8395 9.4216 16.8429 9.6084C16.8438 9.65542 16.8439 9.70278 16.8439 9.75C16.8439 9.7972 16.8438 9.84458 16.8429 9.8916Z" fill="#717171"/>
</svg>
