<svg width="18" height="18" viewBox="0 0 18 18" fill="none" xmlns="http://www.w3.org/2000/svg">
<path d="M6.75 12.75C6.75 11.9216 6.07843 11.25 5.25 11.25H3C2.17157 11.25 1.5 11.9216 1.5 12.75V15C1.5 15.8284 2.17157 16.5 3 16.5H5.25C6.07843 16.5 6.75 15.8284 6.75 15V12.75ZM16.5 12.75C16.5 11.9216 15.8284 11.25 15 11.25H12.75C11.9216 11.25 11.25 11.9216 11.25 12.75V15C11.25 15.8284 11.9216 16.5 12.75 16.5H15C15.8284 16.5 16.5 15.8284 16.5 15V12.75ZM6.75 3C6.75 2.17157 6.07843 1.5 5.25 1.5H3C2.17157 1.5 1.5 2.17157 1.5 3V5.25C1.5 6.07843 2.17157 6.75 3 6.75H5.25C6.07843 6.75 6.75 6.07843 6.75 5.25V3ZM16.5 3C16.5 2.17157 15.8284 1.5 15 1.5H12.75C11.9216 1.5 11.25 2.17157 11.25 3V5.25C11.25 6.07843 11.9216 6.75 12.75 6.75H15C15.8284 6.75 16.5 6.07843 16.5 5.25V3ZM8.25 15C8.25 16.6569 6.90685 18 5.25 18H3C1.34315 18 0 16.6569 0 15V12.75C0 11.0931 1.34315 9.75 3 9.75H5.25C6.90685 9.75 8.25 11.0931 8.25 12.75V15ZM18 15C18 16.6569 16.6569 18 15 18H12.75C11.0931 18 9.75 16.6569 9.75 15V12.75C9.75 11.0931 11.0931 9.75 12.75 9.75H15C16.6569 9.75 18 11.0931 18 12.75V15ZM8.25 5.25C8.25 6.90685 6.90685 8.25 5.25 8.25H3C1.34315 8.25 0 6.90685 0 5.25V3C0 1.34315 1.34315 0 3 0H5.25C6.90685 0 8.25 1.34315 8.25 3V5.25ZM18 5.25C18 6.90685 16.6569 8.25 15 8.25H12.75C11.0931 8.25 9.75 6.90685 9.75 5.25V3C9.75 1.34315 11.0931 0 12.75 0H15C16.6569 0 18 1.34315 18 3V5.25Z" fill="#717171"/>
</svg>
