<svg width="21" height="19" viewBox="0 0 21 19" fill="none" xmlns="http://www.w3.org/2000/svg">
<path d="M10.499 9C12.6395 9 14.5445 9.9987 15.7803 11.5508C16.2321 11.3581 16.7289 11.25 17.25 11.25C19.321 11.2501 21 12.929 21 15C21 15.1011 20.9962 15.2014 20.9883 15.3008C20.9648 15.5963 20.7689 15.8498 20.4893 15.9482C19.4747 16.3055 18.3843 16.5 17.25 16.5C17.2357 16.5 17.2213 16.4991 17.207 16.499C17.1804 16.7365 17.0432 16.9475 16.8359 17.0664L16.4824 17.2617C14.6976 18.2118 12.66 18.75 10.499 18.75C8.33797 18.75 6.3005 18.2119 4.51562 17.2617L4.16211 17.0664L4.08789 17.0176C3.92219 16.8943 3.81327 16.7069 3.79004 16.499C3.7767 16.4991 3.76335 16.5 3.75 16.5C2.6157 16.5 1.52526 16.3055 0.510742 15.9482C0.231132 15.8498 0.0352401 15.5963 0.0117188 15.3008L0.759766 15.2412V15.2402L0.0117188 15.3008C0.00381273 15.2014 0 15.1011 0 15C0 12.9289 1.67893 11.25 3.75 11.25C4.27009 11.25 4.76569 11.3578 5.2168 11.5498C6.45254 9.99771 8.35863 9.00008 10.499 9ZM10.499 10.5C8.64043 10.5001 7.00717 11.4656 6.07324 12.9258C5.55652 13.7337 5.25426 14.692 5.24902 15.7227C5.24898 15.7317 5.24902 15.741 5.24902 15.75C5.24902 15.8187 5.25228 15.8871 5.25488 15.9551C6.82015 16.7815 8.60384 17.25 10.499 17.25C12.3943 17.25 14.1778 16.7806 15.7432 15.9541C15.7457 15.8864 15.749 15.8184 15.749 15.75C15.749 15.7401 15.7491 15.7311 15.749 15.7227C15.7438 14.6923 15.4423 13.7336 14.9258 12.9258C13.9918 11.4654 12.3578 10.5 10.499 10.5ZM3.75 12.75C2.61112 12.75 1.67171 13.5964 1.52246 14.6943C2.23047 14.8924 2.97711 15 3.75 15C3.76368 15 3.77735 14.9991 3.79102 14.999C3.87554 14.2364 4.08708 13.5116 4.4043 12.8467C4.19751 12.784 3.97799 12.75 3.75 12.75ZM17.25 12.75C17.0213 12.75 16.8011 12.7846 16.5938 12.8477C16.9108 13.5124 17.1225 14.2366 17.207 14.999C17.2213 14.9991 17.2357 15 17.25 15C18.0226 15 18.7688 14.8923 19.4766 14.6943C19.3273 13.5965 18.3888 12.7501 17.25 12.75ZM5.24902 6.75C5.24902 5.92157 4.57745 5.25 3.74902 5.25C2.92071 5.25013 2.24902 5.92165 2.24902 6.75C2.24902 7.57835 2.92071 8.24987 3.74902 8.25C4.57745 8.25 5.24902 7.57843 5.24902 6.75ZM18.749 6.75C18.749 5.92157 18.0774 5.25 17.249 5.25C16.4207 5.25013 15.749 5.92165 15.749 6.75C15.749 7.57835 16.4207 8.24987 17.249 8.25C18.0774 8.25 18.749 7.57843 18.749 6.75ZM12.749 3.75C12.749 2.50736 11.7417 1.5 10.499 1.5C9.2565 1.50013 8.24902 2.50744 8.24902 3.75C8.24902 4.99256 9.2565 5.99987 10.499 6C11.7417 6 12.749 4.99264 12.749 3.75ZM6.74902 6.75C6.74902 8.40685 5.40588 9.75 3.74902 9.75C2.09228 9.74987 0.749023 8.40677 0.749023 6.75C0.749023 5.09323 2.09228 3.75013 3.74902 3.75C5.40588 3.75 6.74902 5.09315 6.74902 6.75ZM20.249 6.75C20.249 8.40685 18.9059 9.75 17.249 9.75C15.5923 9.74987 14.249 8.40677 14.249 6.75C14.249 5.09323 15.5923 3.75013 17.249 3.75C18.9059 3.75 20.249 5.09315 20.249 6.75ZM14.249 3.75C14.249 5.82107 12.5701 7.5 10.499 7.5C8.42807 7.49987 6.74902 5.82099 6.74902 3.75C6.74902 1.67901 8.42807 0.000131937 10.499 0C12.5701 0 14.249 1.67893 14.249 3.75Z" fill="#717171"/>
</svg>
